<svg xmlns="http://www.w3.org/2000/svg" width="1200" height="500"><defs><linearGradient id="bg" x1="0" y1="0" x2="1" y2="1"><stop stop-color="#09080f"/><stop offset=".55" stop-color="#15111f"/><stop offset="1" stop-color="#09090f"/></linearGradient></defs><rect width="1200" height="500" rx="34" fill="url(#bg)"/><text x="55" y="85" font-family="Arial" font-size="23" font-weight="800" fill="#ff4c5d">ÇALIŞMA SÜRECİ</text><text x="55" y="145" font-family="Arial" font-size="50" font-weight="900" fill="#fff">Nasıl <tspan fill="#ff3549">Çalışıyoruz?</tspan></text><g font-family="Arial" fill="#fff"><g transform="translate(55 190)"><rect width="255" height="250" rx="22" fill="#11101a" stroke="#342f42"/><text x="22" y="60" font-size="38" font-weight="900" fill="#ff3549">01</text><text x="22" y="112" font-size="23" font-weight="900">KONU BELİRLEME</text><text x="22" y="155" font-size="15" fill="#c7c2d1">İzlenme potansiyeli olan</text><text x="22" y="180" font-size="15" fill="#c7c2d1">konu belirlenir.</text></g><g transform="translate(340 190)"><rect width="255" height="250" rx="22" fill="#11101a" stroke="#342f42"/><text x="22" y="60" font-size="38" font-weight="900" fill="#b45cff">02</text><text x="22" y="112" font-size="23" font-weight="900">SENARYO</text><text x="22" y="155" font-size="15" fill="#c7c2d1">Merak uyandıran kısa video</text><text x="22" y="180" font-size="15" fill="#c7c2d1">metni hazırlanır.</text></g><g transform="translate(625 190)"><rect width="255" height="250" rx="22" fill="#11101a" stroke="#342f42"/><text x="22" y="60" font-size="38" font-weight="900" fill="#ff3549">03</text><text x="22" y="112" font-size="23" font-weight="900">VİDEO ÜRETİMİ</text><text x="22" y="155" font-size="15" fill="#c7c2d1">Ses, görsel, kurgu ve altyazı</text><text x="22" y="180" font-size="15" fill="#c7c2d1">birleştirilir.</text></g><g transform="translate(910 190)"><rect width="255" height="250" rx="22" fill="#11101a" stroke="#342f42"/><text x="22" y="60" font-size="38" font-weight="900" fill="#b45cff">04</text><text x="22" y="112" font-size="23" font-weight="900">HAZIR TESLİM</text><text x="22" y="155" font-size="15" fill="#c7c2d1">Video paylaşılmaya hazır</text><text x="22" y="180" font-size="15" fill="#c7c2d1">şekilde teslim edilir.</text></g></g></svg>