<svg xmlns="http://www.w3.org/2000/svg" width="1200" height="500"><defs><linearGradient id="bg" x1="0" y1="0" x2="1" y2="1"><stop stop-color="#09080f"/><stop offset=".55" stop-color="#15111f"/><stop offset="1" stop-color="#09090f"/></linearGradient></defs><rect width="1200" height="500" rx="34" fill="url(#bg)"/><text x="55" y="85" font-family="Arial" font-size="23" font-weight="800" fill="#b45cff">PAKET SEÇENEKLERİ</text><text x="55" y="145" font-family="Arial" font-size="50" font-weight="900" fill="#fff">İhtiyacınıza Göre <tspan fill="#ff3549">Paketler</tspan></text><g font-family="Arial"><g transform="translate(55 195)"><rect width="255" height="235" rx="22" fill="#11101a" stroke="#342f42"/><text x="22" y="60" font-size="46" font-weight="900" fill="#ff3549">01</text><text x="22" y="108" font-size="22" font-weight="900" fill="#fff">TEK VİDEO</text><text x="22" y="147" font-size="15" fill="#c7c2d1">1 adet yayına hazır video</text><text x="22" y="198" font-size="14" font-weight="800" fill="#fff">DETAY: ÖZEL MESAJ</text></g><g transform="translate(340 195)"><rect width="255" height="235" rx="22" fill="#11101a" stroke="#342f42"/><text x="22" y="60" font-size="46" font-weight="900" fill="#b45cff">05</text><text x="22" y="108" font-size="22" font-weight="900" fill="#fff">5 VİDEO</text><text x="22" y="147" font-size="15" fill="#c7c2d1">Toplu üretime başlangıç</text><text x="22" y="198" font-size="14" font-weight="800" fill="#fff">DETAY: ÖZEL MESAJ</text></g><g transform="translate(625 195)"><rect width="255" height="235" rx="22" fill="#11101a" stroke="#342f42"/><text x="22" y="60" font-size="46" font-weight="900" fill="#ff3549">10</text><text x="22" y="108" font-size="22" font-weight="900" fill="#fff">10 VİDEO</text><text x="22" y="147" font-size="15" fill="#c7c2d1">Düzenli paylaşım için</text><text x="22" y="198" font-size="14" font-weight="800" fill="#fff">DETAY: ÖZEL MESAJ</text></g><g transform="translate(910 195)"><rect width="255" height="235" rx="22" fill="#11101a" stroke="#342f42"/><text x="22" y="60" font-size="46" font-weight="900" fill="#b45cff">∞</text><text x="22" y="108" font-size="22" font-weight="900" fill="#fff">DÜZENLİ İÇERİK</text><text x="22" y="147" font-size="15" fill="#c7c2d1">Sürekli içerik ihtiyacı için</text><text x="22" y="198" font-size="14" font-weight="800" fill="#fff">DETAY: ÖZEL MESAJ</text></g></g></svg>